<?xml version="1.0" encoding="utf-8"?>
<!-- Generator: Adobe Illustrator 25.2.0, SVG Export Plug-In . SVG Version: 6.00 Build 0)  -->
<svg version="1.1" id="Design" xmlns="http://www.w3.org/2000/svg" xmlns:xlink="http://www.w3.org/1999/xlink" x="0px" y="0px"
	 viewBox="0 0 288 288" style="enable-background:new 0 0 288 288;" xml:space="preserve">
<style type="text/css">
	.st0{fill:#060606;}
	.st1{fill:#131313;}
	.st2{fill:#202020;}
	.st3{fill:url(#SVGID_1_);}
</style>
<g>
	<g>
		<rect id="XMLID_3859_" width="288" height="288"/>
		<g id="XMLID_3348_">
			<polygon id="XMLID_3858_" points="288,271.06 278.2,271.06 288,287.7 			"/>
			<polygon id="XMLID_3857_" class="st0" points="288,287.7 278.2,271.06 268.23,288 288,288 			"/>
			<polygon id="XMLID_3856_" points="278.2,271.06 268.23,288 258.26,271.06 			"/>
			<polygon id="XMLID_3855_" class="st0" points="248.28,288 258.26,271.06 268.23,288 			"/>
			<polygon id="XMLID_3854_" class="st1" points="258.26,271.06 248.28,288 238.31,271.06 			"/>
			<polygon id="XMLID_3853_" points="228.34,288 238.31,271.06 248.28,288 			"/>
			<polygon id="XMLID_3852_" class="st2" points="238.31,271.06 228.34,288 218.36,271.06 			"/>
			<polygon id="XMLID_3851_" class="st1" points="208.39,288 218.36,271.06 228.34,288 			"/>
			<polygon id="XMLID_3850_" class="st0" points="218.36,271.06 208.39,288 198.42,271.06 			"/>
			<polygon id="XMLID_3849_" class="st1" points="188.44,288 198.42,271.06 208.39,288 			"/>
			<polygon id="XMLID_3848_" class="st1" points="198.42,271.06 188.44,288 178.47,271.06 			"/>
			<polygon id="XMLID_3847_" class="st0" points="168.5,288 178.47,271.06 188.44,288 			"/>
			<polygon id="XMLID_3846_" class="st0" points="178.47,271.06 168.5,288 158.52,271.06 			"/>
			<polygon id="XMLID_3845_" class="st0" points="148.55,288 158.52,271.06 168.5,288 			"/>
			<polygon id="XMLID_3844_" class="st1" points="158.52,271.06 148.55,288 138.58,271.06 			"/>
			<polygon id="XMLID_3843_" class="st2" points="128.6,288 138.58,271.06 148.55,288 			"/>
			<polygon id="XMLID_3842_" class="st1" points="138.58,271.06 128.6,288 118.63,271.06 			"/>
			<polygon id="XMLID_3841_" class="st0" points="108.66,288 118.63,271.06 128.6,288 			"/>
			<polygon id="XMLID_3840_" class="st0" points="118.63,271.06 108.66,288 98.68,271.06 			"/>
			<polygon id="XMLID_3839_" class="st1" points="88.71,288 98.68,271.06 108.66,288 			"/>
			<polygon id="XMLID_3838_" class="st1" points="98.68,271.06 88.71,288 78.74,271.06 			"/>
			<polygon id="XMLID_3837_" class="st0" points="68.76,288 78.74,271.06 88.71,288 			"/>
			<polygon id="XMLID_3836_" points="78.74,271.06 68.76,288 58.79,271.06 			"/>
			<polygon id="XMLID_3835_" class="st0" points="48.81,288 58.79,271.06 68.76,288 			"/>
			<polygon id="XMLID_3834_" class="st2" points="58.79,271.06 48.81,288 38.84,271.06 			"/>
			<polygon id="XMLID_3833_" class="st1" points="28.87,288 38.84,271.06 48.81,288 			"/>
			<polygon id="XMLID_3832_" class="st1" points="38.84,271.06 28.87,288 18.89,271.06 			"/>
			<polygon id="XMLID_3831_" class="st1" points="8.92,288 18.89,271.06 28.87,288 			"/>
			<polygon id="XMLID_3830_" class="st0" points="0,272.85 8.92,288 18.89,271.06 0,271.06 			"/>
			<polygon id="XMLID_3829_" class="st1" points="0,288 8.92,288 0,272.85 			"/>
			<polygon id="XMLID_3828_" class="st1" points="288,254.42 278.2,271.06 288,271.06 			"/>
			<polygon id="XMLID_3827_" class="st1" points="288,254.12 268.23,254.12 278.2,271.06 288,254.42 			"/>
			<polygon id="XMLID_3826_" class="st1" points="258.26,271.06 268.23,254.12 278.2,271.06 			"/>
			<polygon id="XMLID_3825_" class="st1" points="268.23,254.12 258.26,271.06 248.28,254.12 			"/>
			<polygon id="XMLID_3824_" class="st1" points="238.31,271.06 248.28,254.12 258.26,271.06 			"/>
			<polygon id="XMLID_3823_" class="st1" points="248.28,254.12 238.31,271.06 228.34,254.12 			"/>
			<polygon id="XMLID_3822_" class="st1" points="218.36,271.06 228.34,254.12 238.31,271.06 			"/>
			<polygon id="XMLID_3821_" class="st1" points="228.34,254.12 218.36,271.06 208.39,254.12 			"/>
			<polygon id="XMLID_3820_" class="st0" points="198.42,271.06 208.39,254.12 218.36,271.06 			"/>
			<polygon id="XMLID_3819_" class="st1" points="208.39,254.12 198.42,271.06 188.44,254.12 			"/>
			<polygon id="XMLID_3818_" points="178.47,271.06 188.44,254.12 198.42,271.06 			"/>
			<polygon id="XMLID_3817_" class="st1" points="188.44,254.12 178.47,271.06 168.5,254.12 			"/>
			<polygon id="XMLID_3816_" points="158.52,271.06 168.5,254.12 178.47,271.06 			"/>
			<polygon id="XMLID_3815_" class="st0" points="168.5,254.12 158.52,271.06 148.55,254.12 			"/>
			<polygon id="XMLID_3814_" class="st1" points="138.58,271.06 148.55,254.12 158.52,271.06 			"/>
			<polygon id="XMLID_3813_" class="st2" points="148.55,254.12 138.58,271.06 128.6,254.12 			"/>
			<polygon id="XMLID_3812_" class="st1" points="118.63,271.06 128.6,254.12 138.58,271.06 			"/>
			<polygon id="XMLID_3811_" class="st1" points="128.6,254.12 118.63,271.06 108.66,254.12 			"/>
			<polygon id="XMLID_3810_" class="st0" points="98.68,271.06 108.66,254.12 118.63,271.06 			"/>
			<polygon id="XMLID_3809_" class="st0" points="108.66,254.12 98.68,271.06 88.71,254.12 			"/>
			<polygon id="XMLID_3808_" points="78.74,271.06 88.71,254.12 98.68,271.06 			"/>
			<polygon id="XMLID_3807_" class="st1" points="88.71,254.12 78.74,271.06 68.76,254.12 			"/>
			<polygon id="XMLID_3806_" class="st1" points="58.79,271.06 68.76,254.12 78.74,271.06 			"/>
			<polygon id="XMLID_3805_" class="st1" points="68.76,254.12 58.79,271.06 48.81,254.12 			"/>
			<polygon id="XMLID_3804_" class="st1" points="38.84,271.06 48.81,254.12 58.79,271.06 			"/>
			<polygon id="XMLID_3803_" class="st1" points="48.81,254.12 38.84,271.06 28.87,254.12 			"/>
			<polygon id="XMLID_3802_" class="st0" points="18.89,271.06 28.87,254.12 38.84,271.06 			"/>
			<polygon id="XMLID_3801_" points="28.87,254.12 18.89,271.06 8.92,254.12 			"/>
			<polygon id="XMLID_3800_" class="st1" points="0,271.06 18.89,271.06 8.92,254.12 0,269.27 			"/>
			<polygon id="XMLID_3799_" class="st1" points="0,269.27 8.92,254.12 0,254.12 			"/>
			<polygon id="XMLID_3798_" points="288,237.18 278.2,237.18 288,253.81 			"/>
			<polygon id="XMLID_3797_" class="st0" points="288,253.81 278.2,237.18 268.23,254.12 288,254.12 			"/>
			<polygon id="XMLID_3796_" class="st1" points="278.2,237.18 268.23,254.12 258.26,237.18 			"/>
			<polygon id="XMLID_3795_" class="st0" points="248.28,254.12 258.26,237.18 268.23,254.12 			"/>
			<polygon id="XMLID_3794_" class="st1" points="258.26,237.18 248.28,254.12 238.31,237.18 			"/>
			<polygon id="XMLID_3793_" class="st0" points="228.34,254.12 238.31,237.18 248.28,254.12 			"/>
			<polygon id="XMLID_3792_" points="238.31,237.18 228.34,254.12 218.36,237.18 			"/>
			<polygon id="XMLID_3791_" class="st1" points="208.39,254.12 218.36,237.18 228.34,254.12 			"/>
			<polygon id="XMLID_3790_" class="st0" points="218.36,237.18 208.39,254.12 198.42,237.18 			"/>
			<polygon id="XMLID_3789_" class="st0" points="188.44,254.12 198.42,237.18 208.39,254.12 			"/>
			<polygon id="XMLID_3788_" class="st0" points="198.42,237.18 188.44,254.12 178.47,237.18 			"/>
			<polygon id="XMLID_3787_" class="st1" points="168.5,254.12 178.47,237.18 188.44,254.12 			"/>
			<polygon id="XMLID_3786_" class="st1" points="178.47,237.18 168.5,254.12 158.52,237.18 			"/>
			<polygon id="XMLID_3785_" class="st1" points="148.55,254.12 158.52,237.18 168.5,254.12 			"/>
			<polygon id="XMLID_3784_" class="st0" points="158.52,237.18 148.55,254.12 138.58,237.18 			"/>
			<polygon id="XMLID_3783_" class="st0" points="128.6,254.12 138.58,237.18 148.55,254.12 			"/>
			<polygon id="XMLID_3782_" class="st1" points="138.58,237.18 128.6,254.12 118.63,237.18 			"/>
			<polygon id="XMLID_3781_" class="st0" points="108.66,254.12 118.63,237.18 128.6,254.12 			"/>
			<polygon id="XMLID_3780_" points="118.63,237.18 108.66,254.12 98.68,237.18 			"/>
			<polygon id="XMLID_3779_" class="st1" points="88.71,254.12 98.68,237.18 108.66,254.12 			"/>
			<polygon id="XMLID_3778_" points="98.68,237.18 88.71,254.12 78.74,237.18 			"/>
			<polygon id="XMLID_3777_" class="st1" points="68.76,254.12 78.74,237.18 88.71,254.12 			"/>
			<polygon id="XMLID_3776_" class="st1" points="78.74,237.18 68.76,254.12 58.79,237.18 			"/>
			<polygon id="XMLID_3775_" points="48.81,254.12 58.79,237.18 68.76,254.12 			"/>
			<polygon id="XMLID_3774_" class="st1" points="58.79,237.18 48.81,254.12 38.84,237.18 			"/>
			<polygon id="XMLID_3773_" class="st1" points="28.87,254.12 38.84,237.18 48.81,254.12 			"/>
			<polygon id="XMLID_3772_" class="st1" points="38.84,237.18 28.87,254.12 18.89,237.18 			"/>
			<polygon id="XMLID_3771_" class="st1" points="8.92,254.12 18.89,237.18 28.87,254.12 			"/>
			<polygon id="XMLID_3770_" class="st2" points="0,238.96 8.92,254.12 18.89,237.18 0,237.18 			"/>
			<polygon id="XMLID_3769_" class="st0" points="0,254.12 8.92,254.12 0,238.96 			"/>
			<polygon id="XMLID_3768_" class="st0" points="288,220.54 278.2,237.18 288,237.18 			"/>
			<polygon id="XMLID_3767_" class="st1" points="288,220.23 268.23,220.23 278.2,237.18 288,220.54 			"/>
			<polygon id="XMLID_3766_" class="st1" points="258.26,237.18 268.23,220.23 278.2,237.18 			"/>
			<polygon id="XMLID_3765_" class="st1" points="268.23,220.23 258.26,237.18 248.28,220.23 			"/>
			<polygon id="XMLID_3764_" class="st2" points="238.31,237.18 248.28,220.23 258.26,237.18 			"/>
			<polygon id="XMLID_3763_" class="st1" points="248.28,220.23 238.31,237.18 228.34,220.23 			"/>
			<polygon id="XMLID_3762_" points="218.36,237.18 228.34,220.23 238.31,237.18 			"/>
			<polygon id="XMLID_3761_" class="st0" points="228.34,220.23 218.36,237.18 208.39,220.23 			"/>
			<polygon id="XMLID_3760_" points="198.42,237.18 208.39,220.23 218.36,237.18 			"/>
			<polygon id="XMLID_3759_" class="st1" points="208.39,220.23 198.42,237.18 188.44,220.23 			"/>
			<polygon id="XMLID_3758_" class="st2" points="178.47,237.18 188.44,220.23 198.42,237.18 			"/>
			<polygon id="XMLID_3757_" class="st1" points="188.44,220.23 178.47,237.18 168.5,220.23 			"/>
			<polygon id="XMLID_3756_" class="st1" points="158.52,237.18 168.5,220.23 178.47,237.18 			"/>
			<polygon id="XMLID_3755_" class="st1" points="168.5,220.23 158.52,237.18 148.55,220.23 			"/>
			<polygon id="XMLID_3754_" class="st2" points="138.58,237.18 148.55,220.23 158.52,237.18 			"/>
			<polygon id="XMLID_3753_" class="st1" points="148.55,220.23 138.58,237.18 128.6,220.23 			"/>
			<polygon id="XMLID_3752_" points="118.63,237.18 128.6,220.23 138.58,237.18 			"/>
			<polygon id="XMLID_3751_" class="st1" points="128.6,220.23 118.63,237.18 108.66,220.23 			"/>
			<polygon id="XMLID_3750_" class="st0" points="98.68,237.18 108.66,220.23 118.63,237.18 			"/>
			<polygon id="XMLID_3749_" class="st1" points="108.66,220.23 98.68,237.18 88.71,220.23 			"/>
			<polygon id="XMLID_3748_" class="st0" points="78.74,237.18 88.71,220.23 98.68,237.18 			"/>
			<polygon id="XMLID_3747_" class="st1" points="88.71,220.23 78.74,237.18 68.76,220.23 			"/>
			<polygon id="XMLID_3746_" class="st1" points="58.79,237.18 68.76,220.23 78.74,237.18 			"/>
			<polygon id="XMLID_3745_" points="68.76,220.23 58.79,237.18 48.81,220.23 			"/>
			<polygon id="XMLID_3744_" class="st2" points="38.84,237.18 48.81,220.23 58.79,237.18 			"/>
			<polygon id="XMLID_3743_" class="st0" points="48.81,220.23 38.84,237.18 28.87,220.23 			"/>
			<polygon id="XMLID_3742_" class="st1" points="18.89,237.18 28.87,220.23 38.84,237.18 			"/>
			<polygon id="XMLID_3741_" class="st1" points="28.87,220.23 18.89,237.18 8.92,220.23 			"/>
			<polygon id="XMLID_3740_" class="st0" points="0,237.18 18.89,237.18 8.92,220.23 0,235.39 			"/>
			<polygon id="XMLID_3739_" class="st1" points="0,235.39 8.92,220.23 0,220.23 			"/>
			<polygon id="XMLID_3738_" class="st0" points="288,203.29 278.2,203.29 288,219.93 			"/>
			<polygon id="XMLID_3737_" class="st1" points="288,219.93 278.2,203.29 268.23,220.23 288,220.23 			"/>
			<polygon id="XMLID_3736_" class="st0" points="278.2,203.29 268.23,220.23 258.26,203.29 			"/>
			<polygon id="XMLID_3735_" class="st2" points="248.28,220.23 258.26,203.29 268.23,220.23 			"/>
			<polygon id="XMLID_3734_" class="st0" points="258.26,203.29 248.28,220.23 238.31,203.29 			"/>
			<polygon id="XMLID_3733_" class="st1" points="228.34,220.23 238.31,203.29 248.28,220.23 			"/>
			<polygon id="XMLID_3732_" class="st2" points="238.31,203.29 228.34,220.23 218.36,203.29 			"/>
			<polygon id="XMLID_3731_" class="st2" points="208.39,220.23 218.36,203.29 228.34,220.23 			"/>
			<polygon id="XMLID_3730_" class="st0" points="218.36,203.29 208.39,220.23 198.42,203.29 			"/>
			<polygon id="XMLID_3729_" class="st1" points="188.44,220.23 198.42,203.29 208.39,220.23 			"/>
			<polygon id="XMLID_3728_" class="st0" points="198.42,203.29 188.44,220.23 178.47,203.29 			"/>
			<polygon id="XMLID_3727_" class="st0" points="168.5,220.23 178.47,203.29 188.44,220.23 			"/>
			<polygon id="XMLID_3726_" class="st0" points="178.47,203.29 168.5,220.23 158.52,203.29 			"/>
			<polygon id="XMLID_3725_" points="148.55,220.23 158.52,203.29 168.5,220.23 			"/>
			<polygon id="XMLID_3724_" points="158.52,203.29 148.55,220.23 138.58,203.29 			"/>
			<polygon id="XMLID_3723_" class="st1" points="128.6,220.23 138.58,203.29 148.55,220.23 			"/>
			<polygon id="XMLID_3722_" points="138.58,203.29 128.6,220.23 118.63,203.29 			"/>
			<polygon id="XMLID_3721_" class="st1" points="108.66,220.23 118.63,203.29 128.6,220.23 			"/>
			<polygon id="XMLID_3720_" points="118.63,203.29 108.66,220.23 98.68,203.29 			"/>
			<polygon id="XMLID_3719_" class="st1" points="88.71,220.23 98.68,203.29 108.66,220.23 			"/>
			<polygon id="XMLID_3718_" class="st1" points="98.68,203.29 88.71,220.23 78.74,203.29 			"/>
			<polygon id="XMLID_3717_" class="st1" points="68.76,220.23 78.74,203.29 88.71,220.23 			"/>
			<polygon id="XMLID_3716_" class="st1" points="78.74,203.29 68.76,220.23 58.79,203.29 			"/>
			<polygon id="XMLID_3715_" class="st1" points="48.81,220.23 58.79,203.29 68.76,220.23 			"/>
			<polygon id="XMLID_3714_" class="st0" points="58.79,203.29 48.81,220.23 38.84,203.29 			"/>
			<polygon id="XMLID_3713_" class="st1" points="28.87,220.23 38.84,203.29 48.81,220.23 			"/>
			<polygon id="XMLID_3712_" points="38.84,203.29 28.87,220.23 18.89,203.29 			"/>
			<polygon id="XMLID_3711_" class="st0" points="8.92,220.23 18.89,203.29 28.87,220.23 			"/>
			<polygon id="XMLID_3710_" class="st0" points="0,205.08 8.92,220.23 18.89,203.29 0,203.29 			"/>
			<polygon id="XMLID_3709_" class="st1" points="0,220.23 8.92,220.23 0,205.08 			"/>
			<polygon id="XMLID_3708_" class="st0" points="288,186.65 278.2,203.29 288,203.29 			"/>
			<polygon id="XMLID_3707_" class="st1" points="288,186.35 268.23,186.35 278.2,203.29 288,186.65 			"/>
			<polygon id="XMLID_3706_" class="st2" points="258.26,203.29 268.23,186.35 278.2,203.29 			"/>
			<polygon id="XMLID_3705_" class="st1" points="268.23,186.35 258.26,203.29 248.28,186.35 			"/>
			<polygon id="XMLID_3704_" class="st1" points="238.31,203.29 248.28,186.35 258.26,203.29 			"/>
			<polygon id="XMLID_3703_" points="248.28,186.35 238.31,203.29 228.34,186.35 			"/>
			<polygon id="XMLID_3702_" points="218.36,203.29 228.34,186.35 238.31,203.29 			"/>
			<polygon id="XMLID_3701_" class="st1" points="228.34,186.35 218.36,203.29 208.39,186.35 			"/>
			<polygon id="XMLID_3700_" points="198.42,203.29 208.39,186.35 218.36,203.29 			"/>
			<polygon id="XMLID_3699_" class="st0" points="208.39,186.35 198.42,203.29 188.44,186.35 			"/>
			<polygon id="XMLID_3698_" class="st0" points="178.47,203.29 188.44,186.35 198.42,203.29 			"/>
			<polygon id="XMLID_3697_" class="st0" points="188.44,186.35 178.47,203.29 168.5,186.35 			"/>
			<polygon id="XMLID_3696_" points="158.52,203.29 168.5,186.35 178.47,203.29 			"/>
			<polygon id="XMLID_3695_" class="st1" points="168.5,186.35 158.52,203.29 148.55,186.35 			"/>
			<polygon id="XMLID_3694_" class="st2" points="138.58,203.29 148.55,186.35 158.52,203.29 			"/>
			<polygon id="XMLID_3693_" class="st1" points="148.55,186.35 138.58,203.29 128.6,186.35 			"/>
			<polygon id="XMLID_3692_" class="st1" points="118.63,203.29 128.6,186.35 138.58,203.29 			"/>
			<polygon id="XMLID_3691_" class="st1" points="128.6,186.35 118.63,203.29 108.66,186.35 			"/>
			<polygon id="XMLID_3690_" class="st1" points="98.68,203.29 108.66,186.35 118.63,203.29 			"/>
			<polygon id="XMLID_3689_" class="st1" points="108.66,186.35 98.68,203.29 88.71,186.35 			"/>
			<polygon id="XMLID_3688_" class="st1" points="78.74,203.29 88.71,186.35 98.68,203.29 			"/>
			<polygon id="XMLID_3687_" class="st1" points="88.71,186.35 78.74,203.29 68.76,186.35 			"/>
			<polygon id="XMLID_3686_" class="st2" points="58.79,203.29 68.76,186.35 78.74,203.29 			"/>
			<polygon id="XMLID_3685_" class="st1" points="68.76,186.35 58.79,203.29 48.81,186.35 			"/>
			<polygon id="XMLID_3684_" class="st1" points="38.84,203.29 48.81,186.35 58.79,203.29 			"/>
			<polygon id="XMLID_3683_" class="st1" points="48.81,186.35 38.84,203.29 28.87,186.35 			"/>
			<polygon id="XMLID_3682_" points="18.89,203.29 28.87,186.35 38.84,203.29 			"/>
			<polygon id="XMLID_3681_" class="st2" points="28.87,186.35 18.89,203.29 8.92,186.35 			"/>
			<polygon id="XMLID_3680_" class="st2" points="0,203.29 18.89,203.29 8.92,186.35 0,201.5 			"/>
			<polygon id="XMLID_3679_" class="st0" points="0,201.5 8.92,186.35 0,186.35 			"/>
			<polygon id="XMLID_3678_" points="288,169.41 278.2,169.41 288,186.05 			"/>
			<polygon id="XMLID_3677_" class="st1" points="288,186.05 278.2,169.41 268.23,186.35 288,186.35 			"/>
			<polygon id="XMLID_3676_" class="st1" points="278.2,169.41 268.23,186.35 258.26,169.41 			"/>
			<polygon id="XMLID_3675_" class="st2" points="248.28,186.35 258.26,169.41 268.23,186.35 			"/>
			<polygon id="XMLID_3674_" class="st1" points="258.26,169.41 248.28,186.35 238.31,169.41 			"/>
			<polygon id="XMLID_3673_" class="st0" points="228.34,186.35 238.31,169.41 248.28,186.35 			"/>
			<polygon id="XMLID_3672_" class="st0" points="238.31,169.41 228.34,186.35 218.36,169.41 			"/>
			<polygon id="XMLID_3671_" class="st1" points="208.39,186.35 218.36,169.41 228.34,186.35 			"/>
			<polygon id="XMLID_3670_" class="st1" points="218.36,169.41 208.39,186.35 198.42,169.41 			"/>
			<polygon id="XMLID_3669_" class="st1" points="188.44,186.35 198.42,169.41 208.39,186.35 			"/>
			<polygon id="XMLID_3668_" class="st1" points="198.42,169.41 188.44,186.35 178.47,169.41 			"/>
			<polygon id="XMLID_3667_" class="st1" points="168.5,186.35 178.47,169.41 188.44,186.35 			"/>
			<polygon id="XMLID_3666_" class="st1" points="178.47,169.41 168.5,186.35 158.52,169.41 			"/>
			<polygon id="XMLID_3665_" class="st1" points="148.55,186.35 158.52,169.41 168.5,186.35 			"/>
			<polygon id="XMLID_3664_" class="st0" points="158.52,169.41 148.55,186.35 138.58,169.41 			"/>
			<polygon id="XMLID_3663_" points="128.6,186.35 138.58,169.41 148.55,186.35 			"/>
			<polygon id="XMLID_3662_" class="st0" points="138.58,169.41 128.6,186.35 118.63,169.41 			"/>
			<polygon id="XMLID_3661_" class="st1" points="108.66,186.35 118.63,169.41 128.6,186.35 			"/>
			<polygon id="XMLID_3660_" class="st0" points="118.63,169.41 108.66,186.35 98.68,169.41 			"/>
			<polygon id="XMLID_3659_" class="st0" points="88.71,186.35 98.68,169.41 108.66,186.35 			"/>
			<polygon id="XMLID_3658_" class="st2" points="98.68,169.41 88.71,186.35 78.74,169.41 			"/>
			<polygon id="XMLID_3657_" class="st0" points="68.76,186.35 78.74,169.41 88.71,186.35 			"/>
			<polygon id="XMLID_3656_" class="st1" points="78.74,169.41 68.76,186.35 58.79,169.41 			"/>
			<polygon id="XMLID_3655_" points="48.81,186.35 58.79,169.41 68.76,186.35 			"/>
			<polygon id="XMLID_3654_" points="58.79,169.41 48.81,186.35 38.84,169.41 			"/>
			<polygon id="XMLID_3653_" class="st1" points="28.87,186.35 38.84,169.41 48.81,186.35 			"/>
			<polygon id="XMLID_3652_" class="st2" points="38.84,169.41 28.87,186.35 18.89,169.41 			"/>
			<polygon id="XMLID_3651_" class="st0" points="8.92,186.35 18.89,169.41 28.87,186.35 			"/>
			<polygon id="XMLID_3650_" class="st0" points="0,171.2 8.92,186.35 18.89,169.41 0,169.41 			"/>
			<polygon id="XMLID_3649_" points="0,186.35 8.92,186.35 0,171.2 			"/>
			<polygon id="XMLID_3648_" class="st1" points="288,152.77 278.2,169.41 288,169.41 			"/>
			<polygon id="XMLID_3647_" class="st1" points="288,152.47 268.23,152.47 278.2,169.41 288,152.77 			"/>
			<polygon id="XMLID_3646_" class="st2" points="258.26,169.41 268.23,152.47 278.2,169.41 			"/>
			<polygon id="XMLID_3645_" class="st1" points="268.23,152.47 258.26,169.41 248.28,152.47 			"/>
			<polygon id="XMLID_3644_" class="st1" points="238.31,169.41 248.28,152.47 258.26,169.41 			"/>
			<polygon id="XMLID_3643_" class="st2" points="248.28,152.47 238.31,169.41 228.34,152.47 			"/>
			<polygon id="XMLID_3642_" class="st1" points="218.36,169.41 228.34,152.47 238.31,169.41 			"/>
			<polygon id="XMLID_3641_" class="st2" points="228.34,152.47 218.36,169.41 208.39,152.47 			"/>
			<polygon id="XMLID_3640_" class="st2" points="198.42,169.41 208.39,152.47 218.36,169.41 			"/>
			<polygon id="XMLID_3639_" class="st2" points="208.39,152.47 198.42,169.41 188.44,152.47 			"/>
			<polygon id="XMLID_3638_" class="st0" points="178.47,169.41 188.44,152.47 198.42,169.41 			"/>
			<polygon id="XMLID_3637_" class="st0" points="188.44,152.47 178.47,169.41 168.5,152.47 			"/>
			<polygon id="XMLID_3636_" class="st1" points="158.52,169.41 168.5,152.47 178.47,169.41 			"/>
			<polygon id="XMLID_3635_" class="st2" points="168.5,152.47 158.52,169.41 148.55,152.47 			"/>
			<polygon id="XMLID_3634_" points="138.58,169.41 148.55,152.47 158.52,169.41 			"/>
			<polygon id="XMLID_3633_" class="st1" points="148.55,152.47 138.58,169.41 128.6,152.47 			"/>
			<polygon id="XMLID_3632_" class="st1" points="118.63,169.41 128.6,152.47 138.58,169.41 			"/>
			<polygon id="XMLID_3631_" class="st1" points="128.6,152.47 118.63,169.41 108.66,152.47 			"/>
			<polygon id="XMLID_3630_" class="st0" points="98.68,169.41 108.66,152.47 118.63,169.41 			"/>
			<polygon id="XMLID_3629_" class="st0" points="108.66,152.47 98.68,169.41 88.71,152.47 			"/>
			<polygon id="XMLID_3628_" class="st0" points="78.74,169.41 88.71,152.47 98.68,169.41 			"/>
			<polygon id="XMLID_3627_" class="st2" points="88.71,152.47 78.74,169.41 68.76,152.47 			"/>
			<polygon id="XMLID_3626_" class="st1" points="58.79,169.41 68.76,152.47 78.74,169.41 			"/>
			<polygon id="XMLID_3625_" points="68.76,152.47 58.79,169.41 48.81,152.47 			"/>
			<polygon id="XMLID_3624_" class="st1" points="38.84,169.41 48.81,152.47 58.79,169.41 			"/>
			<polygon id="XMLID_3623_" class="st1" points="48.81,152.47 38.84,169.41 28.87,152.47 			"/>
			<polygon id="XMLID_3622_" class="st1" points="18.89,169.41 28.87,152.47 38.84,169.41 			"/>
			<polygon id="XMLID_3621_" class="st1" points="28.87,152.47 18.89,169.41 8.92,152.47 			"/>
			<polygon id="XMLID_3620_" class="st1" points="0,169.41 18.89,169.41 8.92,152.47 0,167.62 			"/>
			<polygon id="XMLID_3619_" class="st1" points="0,167.62 8.92,152.47 0,152.47 			"/>
			<polygon id="XMLID_3618_" points="288,135.53 278.2,135.53 288,152.17 			"/>
			<polygon id="XMLID_3617_" class="st2" points="288,152.17 278.2,135.53 268.23,152.47 288,152.47 			"/>
			<polygon id="XMLID_3616_" class="st1" points="278.2,135.53 268.23,152.47 258.26,135.53 			"/>
			<polygon id="XMLID_3615_" class="st2" points="248.28,152.47 258.26,135.53 268.23,152.47 			"/>
			<polygon id="XMLID_3614_" points="258.26,135.53 248.28,152.47 238.31,135.53 			"/>
			<polygon id="XMLID_3613_" points="228.34,152.47 238.31,135.53 248.28,152.47 			"/>
			<polygon id="XMLID_3612_" class="st1" points="238.31,135.53 228.34,152.47 218.36,135.53 			"/>
			<polygon id="XMLID_3611_" points="208.39,152.47 218.36,135.53 228.34,152.47 			"/>
			<polygon id="XMLID_3610_" points="218.36,135.53 208.39,152.47 198.42,135.53 			"/>
			<polygon id="XMLID_3609_" class="st0" points="188.44,152.47 198.42,135.53 208.39,152.47 			"/>
			<polygon id="XMLID_3608_" class="st0" points="198.42,135.53 188.44,152.47 178.47,135.53 			"/>
			<polygon id="XMLID_3607_" points="168.5,152.47 178.47,135.53 188.44,152.47 			"/>
			<polygon id="XMLID_3606_" class="st1" points="178.47,135.53 168.5,152.47 158.52,135.53 			"/>
			<polygon id="XMLID_3605_" class="st2" points="148.55,152.47 158.52,135.53 168.5,152.47 			"/>
			<polygon id="XMLID_3604_" class="st0" points="158.52,135.53 148.55,152.47 138.58,135.53 			"/>
			<polygon id="XMLID_3603_" points="128.6,152.47 138.58,135.53 148.55,152.47 			"/>
			<polygon id="XMLID_3602_" class="st1" points="138.58,135.53 128.6,152.47 118.63,135.53 			"/>
			<polygon id="XMLID_3601_" class="st0" points="108.66,152.47 118.63,135.53 128.6,152.47 			"/>
			<polygon id="XMLID_3600_" class="st0" points="118.63,135.53 108.66,152.47 98.68,135.53 			"/>
			<polygon id="XMLID_3599_" class="st1" points="88.71,152.47 98.68,135.53 108.66,152.47 			"/>
			<polygon id="XMLID_3598_" class="st2" points="98.68,135.53 88.71,152.47 78.74,135.53 			"/>
			<polygon id="XMLID_3597_" class="st0" points="68.76,152.47 78.74,135.53 88.71,152.47 			"/>
			<polygon id="XMLID_3596_" class="st2" points="78.74,135.53 68.76,152.47 58.79,135.53 			"/>
			<polygon id="XMLID_3595_" points="48.81,152.47 58.79,135.53 68.76,152.47 			"/>
			<polygon id="XMLID_3594_" class="st1" points="58.79,135.53 48.81,152.47 38.84,135.53 			"/>
			<polygon id="XMLID_3593_" points="28.87,152.47 38.84,135.53 48.81,152.47 			"/>
			<polygon id="XMLID_3592_" class="st0" points="38.84,135.53 28.87,152.47 18.89,135.53 			"/>
			<polygon id="XMLID_3591_" class="st0" points="8.92,152.47 18.89,135.53 28.87,152.47 			"/>
			<polygon id="XMLID_3590_" class="st1" points="0,137.32 8.92,152.47 18.89,135.53 0,135.53 			"/>
			<polygon id="XMLID_3589_" points="0,152.47 8.92,152.47 0,137.32 			"/>
			<polygon id="XMLID_3588_" class="st2" points="288,118.89 278.2,135.53 288,135.53 			"/>
			<polygon id="XMLID_3587_" class="st1" points="288,118.59 268.23,118.59 278.2,135.53 288,118.89 			"/>
			<polygon id="XMLID_3586_" class="st1" points="258.26,135.53 268.23,118.59 278.2,135.53 			"/>
			<polygon id="XMLID_3585_" class="st1" points="268.23,118.59 258.26,135.53 248.28,118.59 			"/>
			<polygon id="XMLID_3584_" class="st1" points="238.31,135.53 248.28,118.59 258.26,135.53 			"/>
			<polygon id="XMLID_3583_" class="st1" points="248.28,118.59 238.31,135.53 228.34,118.59 			"/>
			<polygon id="XMLID_3582_" points="218.36,135.53 228.34,118.59 238.31,135.53 			"/>
			<polygon id="XMLID_3581_" class="st0" points="228.34,118.59 218.36,135.53 208.39,118.59 			"/>
			<polygon id="XMLID_3580_" class="st1" points="198.42,135.53 208.39,118.59 218.36,135.53 			"/>
			<polygon id="XMLID_3579_" class="st1" points="208.39,118.59 198.42,135.53 188.44,118.59 			"/>
			<polygon id="XMLID_3578_" class="st1" points="178.47,135.53 188.44,118.59 198.42,135.53 			"/>
			<polygon id="XMLID_3577_" class="st1" points="188.44,118.59 178.47,135.53 168.5,118.59 			"/>
			<polygon id="XMLID_3576_" class="st1" points="158.52,135.53 168.5,118.59 178.47,135.53 			"/>
			<polygon id="XMLID_3575_" class="st1" points="168.5,118.59 158.52,135.53 148.55,118.59 			"/>
			<polygon id="XMLID_3574_" class="st0" points="138.58,135.53 148.55,118.59 158.52,135.53 			"/>
			<polygon id="XMLID_3573_" points="148.55,118.59 138.58,135.53 128.6,118.59 			"/>
			<polygon id="XMLID_3572_" class="st1" points="118.63,135.53 128.6,118.59 138.58,135.53 			"/>
			<polygon id="XMLID_3571_" points="128.6,118.59 118.63,135.53 108.66,118.59 			"/>
			<polygon id="XMLID_3570_" points="98.68,135.53 108.66,118.59 118.63,135.53 			"/>
			<polygon id="XMLID_3569_" class="st1" points="108.66,118.59 98.68,135.53 88.71,118.59 			"/>
			<polygon id="XMLID_3568_" class="st1" points="78.74,135.53 88.71,118.59 98.68,135.53 			"/>
			<polygon id="XMLID_3567_" points="88.71,118.59 78.74,135.53 68.76,118.59 			"/>
			<polygon id="XMLID_3566_" class="st1" points="58.79,135.53 68.76,118.59 78.74,135.53 			"/>
			<polygon id="XMLID_3565_" class="st1" points="68.76,118.59 58.79,135.53 48.81,118.59 			"/>
			<polygon id="XMLID_3564_" class="st2" points="38.84,135.53 48.81,118.59 58.79,135.53 			"/>
			<polygon id="XMLID_3563_" class="st1" points="48.81,118.59 38.84,135.53 28.87,118.59 			"/>
			<polygon id="XMLID_3562_" class="st0" points="18.89,135.53 28.87,118.59 38.84,135.53 			"/>
			<polygon id="XMLID_3561_" class="st1" points="28.87,118.59 18.89,135.53 8.92,118.59 			"/>
			<polygon id="XMLID_3560_" class="st0" points="0,135.53 18.89,135.53 8.92,118.59 0,133.74 			"/>
			<polygon id="XMLID_3559_" class="st2" points="0,133.74 8.92,118.59 0,118.59 			"/>
			<polygon id="XMLID_3558_" class="st1" points="288,101.65 278.2,101.65 288,118.29 			"/>
			<polygon id="XMLID_3557_" class="st1" points="288,118.29 278.2,101.65 268.23,118.59 288,118.59 			"/>
			<polygon id="XMLID_3556_" class="st1" points="278.2,101.65 268.23,118.59 258.26,101.65 			"/>
			<polygon id="XMLID_3555_" class="st1" points="248.28,118.59 258.26,101.65 268.23,118.59 			"/>
			<polygon id="XMLID_3554_" class="st1" points="258.26,101.65 248.28,118.59 238.31,101.65 			"/>
			<polygon id="XMLID_3553_" class="st0" points="228.34,118.59 238.31,101.65 248.28,118.59 			"/>
			<polygon id="XMLID_3552_" class="st0" points="238.31,101.65 228.34,118.59 218.36,101.65 			"/>
			<polygon id="XMLID_3551_" class="st2" points="208.39,118.59 218.36,101.65 228.34,118.59 			"/>
			<polygon id="XMLID_3550_" class="st2" points="218.36,101.65 208.39,118.59 198.42,101.65 			"/>
			<polygon id="XMLID_3549_" class="st1" points="188.44,118.59 198.42,101.65 208.39,118.59 			"/>
			<polygon id="XMLID_3548_" class="st0" points="198.42,101.65 188.44,118.59 178.47,101.65 			"/>
			<polygon id="XMLID_3547_" class="st2" points="168.5,118.59 178.47,101.65 188.44,118.59 			"/>
			<polygon id="XMLID_3546_" class="st1" points="178.47,101.65 168.5,118.59 158.52,101.65 			"/>
			<polygon id="XMLID_3545_" class="st1" points="148.55,118.59 158.52,101.65 168.5,118.59 			"/>
			<polygon id="XMLID_3544_" class="st0" points="158.52,101.65 148.55,118.59 138.58,101.65 			"/>
			<polygon id="XMLID_3543_" class="st0" points="128.6,118.59 138.58,101.65 148.55,118.59 			"/>
			<polygon id="XMLID_3542_" class="st1" points="138.58,101.65 128.6,118.59 118.63,101.65 			"/>
			<polygon id="XMLID_3541_" points="108.66,118.59 118.63,101.65 128.6,118.59 			"/>
			<polygon id="XMLID_3540_" class="st0" points="118.63,101.65 108.66,118.59 98.68,101.65 			"/>
			<polygon id="XMLID_3539_" class="st1" points="88.71,118.59 98.68,101.65 108.66,118.59 			"/>
			<polygon id="XMLID_3538_" class="st0" points="98.68,101.65 88.71,118.59 78.74,101.65 			"/>
			<polygon id="XMLID_3537_" class="st1" points="68.76,118.59 78.74,101.65 88.71,118.59 			"/>
			<polygon id="XMLID_3536_" class="st1" points="78.74,101.65 68.76,118.59 58.79,101.65 			"/>
			<polygon id="XMLID_3535_" class="st1" points="48.81,118.59 58.79,101.65 68.76,118.59 			"/>
			<polygon id="XMLID_3534_" points="58.79,101.65 48.81,118.59 38.84,101.65 			"/>
			<polygon id="XMLID_3533_" class="st1" points="28.87,118.59 38.84,101.65 48.81,118.59 			"/>
			<polygon id="XMLID_3532_" class="st1" points="38.84,101.65 28.87,118.59 18.89,101.65 			"/>
			<polygon id="XMLID_3531_" class="st0" points="8.92,118.59 18.89,101.65 28.87,118.59 			"/>
			<polygon id="XMLID_3530_" class="st1" points="0,103.44 8.92,118.59 18.89,101.65 0,101.65 			"/>
			<polygon id="XMLID_3529_" class="st2" points="0,118.59 8.92,118.59 0,103.44 			"/>
			<polygon id="XMLID_3528_" class="st1" points="288,85.01 278.2,101.65 288,101.65 			"/>
			<polygon id="XMLID_3527_" class="st1" points="288,84.71 268.23,84.71 278.2,101.65 288,85.01 			"/>
			<polygon id="XMLID_3526_" class="st1" points="258.26,101.65 268.23,84.71 278.2,101.65 			"/>
			<polygon id="XMLID_3525_" class="st0" points="268.23,84.71 258.26,101.65 248.28,84.71 			"/>
			<polygon id="XMLID_3524_" class="st1" points="238.31,101.65 248.28,84.71 258.26,101.65 			"/>
			<polygon id="XMLID_3523_" class="st0" points="248.28,84.71 238.31,101.65 228.34,84.71 			"/>
			<polygon id="XMLID_3522_" class="st1" points="218.36,101.65 228.34,84.71 238.31,101.65 			"/>
			<polygon id="XMLID_3521_" class="st0" points="228.34,84.71 218.36,101.65 208.39,84.71 			"/>
			<polygon id="XMLID_3520_" class="st1" points="198.42,101.65 208.39,84.71 218.36,101.65 			"/>
			<polygon id="XMLID_3519_" class="st1" points="208.39,84.71 198.42,101.65 188.44,84.71 			"/>
			<polygon id="XMLID_3518_" class="st1" points="178.47,101.65 188.44,84.71 198.42,101.65 			"/>
			<polygon id="XMLID_3517_" class="st2" points="188.44,84.71 178.47,101.65 168.5,84.71 			"/>
			<polygon id="XMLID_3516_" class="st2" points="158.52,101.65 168.5,84.71 178.47,101.65 			"/>
			<polygon id="XMLID_3515_" class="st1" points="168.5,84.71 158.52,101.65 148.55,84.71 			"/>
			<polygon id="XMLID_3514_" class="st2" points="138.58,101.65 148.55,84.71 158.52,101.65 			"/>
			<polygon id="XMLID_3513_" class="st2" points="148.55,84.71 138.58,101.65 128.6,84.71 			"/>
			<polygon id="XMLID_3512_" points="118.63,101.65 128.6,84.71 138.58,101.65 			"/>
			<polygon id="XMLID_3511_" class="st0" points="128.6,84.71 118.63,101.65 108.66,84.71 			"/>
			<polygon id="XMLID_3510_" class="st2" points="98.68,101.65 108.66,84.71 118.63,101.65 			"/>
			<polygon id="XMLID_3509_" points="108.66,84.71 98.68,101.65 88.71,84.71 			"/>
			<polygon id="XMLID_3508_" points="78.74,101.65 88.71,84.71 98.68,101.65 			"/>
			<polygon id="XMLID_3507_" class="st1" points="88.71,84.71 78.74,101.65 68.76,84.71 			"/>
			<polygon id="XMLID_3506_" class="st1" points="58.79,101.65 68.76,84.71 78.74,101.65 			"/>
			<polygon id="XMLID_3505_" class="st1" points="68.76,84.71 58.79,101.65 48.81,84.71 			"/>
			<polygon id="XMLID_3504_" points="38.84,101.65 48.81,84.71 58.79,101.65 			"/>
			<polygon id="XMLID_3503_" points="48.81,84.71 38.84,101.65 28.87,84.71 			"/>
			<polygon id="XMLID_3502_" points="18.89,101.65 28.87,84.71 38.84,101.65 			"/>
			<polygon id="XMLID_3501_" class="st1" points="28.87,84.71 18.89,101.65 8.92,84.71 			"/>
			<polygon id="XMLID_3500_" class="st0" points="0,101.65 18.89,101.65 8.92,84.71 0,99.86 			"/>
			<polygon id="XMLID_3499_" points="0,99.86 8.92,84.71 0,84.71 			"/>
			<polygon id="XMLID_3498_" class="st2" points="288,67.76 278.2,67.76 288,84.4 			"/>
			<polygon id="XMLID_3497_" class="st1" points="288,84.4 278.2,67.76 268.23,84.71 288,84.71 			"/>
			<polygon id="XMLID_3496_" class="st0" points="278.2,67.76 268.23,84.71 258.26,67.76 			"/>
			<polygon id="XMLID_3495_" points="248.28,84.71 258.26,67.76 268.23,84.71 			"/>
			<polygon id="XMLID_3494_" class="st0" points="258.26,67.76 248.28,84.71 238.31,67.76 			"/>
			<polygon id="XMLID_3493_" class="st0" points="228.34,84.71 238.31,67.76 248.28,84.71 			"/>
			<polygon id="XMLID_3492_" class="st1" points="238.31,67.76 228.34,84.71 218.36,67.76 			"/>
			<polygon id="XMLID_3491_" class="st0" points="208.39,84.71 218.36,67.76 228.34,84.71 			"/>
			<polygon id="XMLID_3490_" class="st0" points="218.36,67.76 208.39,84.71 198.42,67.76 			"/>
			<polygon id="XMLID_3489_" class="st1" points="188.44,84.71 198.42,67.76 208.39,84.71 			"/>
			<polygon id="XMLID_3488_" class="st2" points="198.42,67.76 188.44,84.71 178.47,67.76 			"/>
			<polygon id="XMLID_3487_" points="168.5,84.71 178.47,67.76 188.44,84.71 			"/>
			<polygon id="XMLID_3486_" class="st0" points="178.47,67.76 168.5,84.71 158.52,67.76 			"/>
			<polygon id="XMLID_3485_" class="st2" points="148.55,84.71 158.52,67.76 168.5,84.71 			"/>
			<polygon id="XMLID_3484_" class="st1" points="158.52,67.76 148.55,84.71 138.58,67.76 			"/>
			<polygon id="XMLID_3483_" class="st2" points="128.6,84.71 138.58,67.76 148.55,84.71 			"/>
			<polygon id="XMLID_3482_" class="st1" points="138.58,67.76 128.6,84.71 118.63,67.76 			"/>
			<polygon id="XMLID_3481_" class="st1" points="108.66,84.71 118.63,67.76 128.6,84.71 			"/>
			<polygon id="XMLID_3480_" class="st1" points="118.63,67.76 108.66,84.71 98.68,67.76 			"/>
			<polygon id="XMLID_3479_" class="st1" points="88.71,84.71 98.68,67.76 108.66,84.71 			"/>
			<polygon id="XMLID_3478_" points="98.68,67.76 88.71,84.71 78.74,67.76 			"/>
			<polygon id="XMLID_3477_" class="st1" points="68.76,84.71 78.74,67.76 88.71,84.71 			"/>
			<polygon id="XMLID_3476_" class="st1" points="78.74,67.76 68.76,84.71 58.79,67.76 			"/>
			<polygon id="XMLID_3475_" class="st1" points="48.81,84.71 58.79,67.76 68.76,84.71 			"/>
			<polygon id="XMLID_3474_" class="st1" points="58.79,67.76 48.81,84.71 38.84,67.76 			"/>
			<polygon id="XMLID_3473_" class="st0" points="28.87,84.71 38.84,67.76 48.81,84.71 			"/>
			<polygon id="XMLID_3472_" class="st1" points="38.84,67.76 28.87,84.71 18.89,67.76 			"/>
			<polygon id="XMLID_3471_" class="st1" points="8.92,84.71 18.89,67.76 28.87,84.71 			"/>
			<polygon id="XMLID_3470_" class="st2" points="0,69.55 8.92,84.71 18.89,67.76 0,67.76 			"/>
			<polygon id="XMLID_3469_" class="st0" points="0,84.71 8.92,84.71 0,69.55 			"/>
			<polygon id="XMLID_3468_" class="st1" points="288,51.12 278.2,67.76 288,67.76 			"/>
			<polygon id="XMLID_3467_" class="st1" points="288,50.82 268.23,50.82 278.2,67.76 288,51.12 			"/>
			<polygon id="XMLID_3466_" points="258.26,67.76 268.23,50.82 278.2,67.76 			"/>
			<polygon id="XMLID_3465_" class="st0" points="268.23,50.82 258.26,67.76 248.28,50.82 			"/>
			<polygon id="XMLID_3464_" class="st0" points="238.31,67.76 248.28,50.82 258.26,67.76 			"/>
			<polygon id="XMLID_3463_" class="st0" points="248.28,50.82 238.31,67.76 228.34,50.82 			"/>
			<polygon id="XMLID_3462_" class="st1" points="218.36,67.76 228.34,50.82 238.31,67.76 			"/>
			<polygon id="XMLID_3461_" class="st0" points="228.34,50.82 218.36,67.76 208.39,50.82 			"/>
			<polygon id="XMLID_3460_" class="st1" points="198.42,67.76 208.39,50.82 218.36,67.76 			"/>
			<polygon id="XMLID_3459_" class="st1" points="208.39,50.82 198.42,67.76 188.44,50.82 			"/>
			<polygon id="XMLID_3458_" class="st1" points="178.47,67.76 188.44,50.82 198.42,67.76 			"/>
			<polygon id="XMLID_3457_" class="st1" points="188.44,50.82 178.47,67.76 168.5,50.82 			"/>
			<polygon id="XMLID_3456_" class="st2" points="158.52,67.76 168.5,50.82 178.47,67.76 			"/>
			<polygon id="XMLID_3455_" points="168.5,50.82 158.52,67.76 148.55,50.82 			"/>
			<polygon id="XMLID_3454_" class="st0" points="138.58,67.76 148.55,50.82 158.52,67.76 			"/>
			<polygon id="XMLID_3453_" class="st1" points="148.55,50.82 138.58,67.76 128.6,50.82 			"/>
			<polygon id="XMLID_3452_" class="st1" points="118.63,67.76 128.6,50.82 138.58,67.76 			"/>
			<polygon id="XMLID_3451_" class="st0" points="128.6,50.82 118.63,67.76 108.66,50.82 			"/>
			<polygon id="XMLID_3450_" class="st0" points="98.68,67.76 108.66,50.82 118.63,67.76 			"/>
			<polygon id="XMLID_3449_" points="108.66,50.82 98.68,67.76 88.71,50.82 			"/>
			<polygon id="XMLID_3448_" class="st0" points="78.74,67.76 88.71,50.82 98.68,67.76 			"/>
			<polygon id="XMLID_3447_" class="st0" points="88.71,50.82 78.74,67.76 68.76,50.82 			"/>
			<polygon id="XMLID_3446_" class="st1" points="58.79,67.76 68.76,50.82 78.74,67.76 			"/>
			<polygon id="XMLID_3445_" class="st1" points="68.76,50.82 58.79,67.76 48.81,50.82 			"/>
			<polygon id="XMLID_3444_" class="st2" points="38.84,67.76 48.81,50.82 58.79,67.76 			"/>
			<polygon id="XMLID_3443_" class="st2" points="48.81,50.82 38.84,67.76 28.87,50.82 			"/>
			<polygon id="XMLID_3442_" class="st0" points="18.89,67.76 28.87,50.82 38.84,67.76 			"/>
			<polygon id="XMLID_3441_" class="st1" points="28.87,50.82 18.89,67.76 8.92,50.82 			"/>
			<polygon id="XMLID_3440_" class="st1" points="0,67.76 18.89,67.76 8.92,50.82 0,65.97 			"/>
			<polygon id="XMLID_3439_" class="st0" points="0,65.97 8.92,50.82 0,50.82 			"/>
			<polygon id="XMLID_3438_" class="st1" points="288,33.88 278.2,33.88 288,50.52 			"/>
			<polygon id="XMLID_3437_" class="st1" points="288,50.52 278.2,33.88 268.23,50.82 288,50.82 			"/>
			<polygon id="XMLID_3436_" class="st1" points="278.2,33.88 268.23,50.82 258.26,33.88 			"/>
			<polygon id="XMLID_3435_" class="st1" points="248.28,50.82 258.26,33.88 268.23,50.82 			"/>
			<polygon id="XMLID_3434_" points="258.26,33.88 248.28,50.82 238.31,33.88 			"/>
			<polygon id="XMLID_3433_" points="228.34,50.82 238.31,33.88 248.28,50.82 			"/>
			<polygon id="XMLID_3432_" class="st1" points="238.31,33.88 228.34,50.82 218.36,33.88 			"/>
			<polygon id="XMLID_3431_" points="208.39,50.82 218.36,33.88 228.34,50.82 			"/>
			<polygon id="XMLID_3430_" class="st1" points="218.36,33.88 208.39,50.82 198.42,33.88 			"/>
			<polygon id="XMLID_3429_" class="st1" points="188.44,50.82 198.42,33.88 208.39,50.82 			"/>
			<polygon id="XMLID_3428_" class="st0" points="198.42,33.88 188.44,50.82 178.47,33.88 			"/>
			<polygon id="XMLID_3427_" class="st0" points="168.5,50.82 178.47,33.88 188.44,50.82 			"/>
			<polygon id="XMLID_3426_" class="st1" points="178.47,33.88 168.5,50.82 158.52,33.88 			"/>
			<polygon id="XMLID_3425_" class="st1" points="148.55,50.82 158.52,33.88 168.5,50.82 			"/>
			<polygon id="XMLID_3424_" class="st0" points="158.52,33.88 148.55,50.82 138.58,33.88 			"/>
			<polygon id="XMLID_3423_" class="st1" points="128.6,50.82 138.58,33.88 148.55,50.82 			"/>
			<polygon id="XMLID_3422_" class="st2" points="138.58,33.88 128.6,50.82 118.63,33.88 			"/>
			<polygon id="XMLID_3421_" points="108.66,50.82 118.63,33.88 128.6,50.82 			"/>
			<polygon id="XMLID_3420_" class="st1" points="118.63,33.88 108.66,50.82 98.68,33.88 			"/>
			<polygon id="XMLID_3419_" class="st2" points="88.71,50.82 98.68,33.88 108.66,50.82 			"/>
			<polygon id="XMLID_3418_" class="st1" points="98.68,33.88 88.71,50.82 78.74,33.88 			"/>
			<polygon id="XMLID_3417_" class="st0" points="68.76,50.82 78.74,33.88 88.71,50.82 			"/>
			<polygon id="XMLID_3416_" class="st0" points="78.74,33.88 68.76,50.82 58.79,33.88 			"/>
			<polygon id="XMLID_3415_" class="st0" points="48.81,50.82 58.79,33.88 68.76,50.82 			"/>
			<polygon id="XMLID_3414_" class="st0" points="58.79,33.88 48.81,50.82 38.84,33.88 			"/>
			<polygon id="XMLID_3413_" points="28.87,50.82 38.84,33.88 48.81,50.82 			"/>
			<polygon id="XMLID_3412_" class="st1" points="38.84,33.88 28.87,50.82 18.89,33.88 			"/>
			<polygon id="XMLID_3411_" class="st1" points="8.92,50.82 18.89,33.88 28.87,50.82 			"/>
			<polygon id="XMLID_3410_" class="st0" points="0,35.67 8.92,50.82 18.89,33.88 0,33.88 			"/>
			<polygon id="XMLID_3409_" class="st0" points="0,50.82 8.92,50.82 0,35.67 			"/>
			<polygon id="XMLID_3408_" class="st0" points="288,17.24 278.2,33.88 288,33.88 			"/>
			<polygon id="XMLID_3407_" class="st0" points="288,16.94 268.23,16.94 278.2,33.88 288,17.24 			"/>
			<polygon id="XMLID_3406_" class="st1" points="258.26,33.88 268.23,16.94 278.2,33.88 			"/>
			<polygon id="XMLID_3405_" class="st2" points="268.23,16.94 258.26,33.88 248.28,16.94 			"/>
			<polygon id="XMLID_3404_" class="st1" points="238.31,33.88 248.28,16.94 258.26,33.88 			"/>
			<polygon id="XMLID_3403_" class="st2" points="248.28,16.94 238.31,33.88 228.34,16.94 			"/>
			<polygon id="XMLID_3402_" class="st1" points="218.36,33.88 228.34,16.94 238.31,33.88 			"/>
			<polygon id="XMLID_3401_" class="st0" points="228.34,16.94 218.36,33.88 208.39,16.94 			"/>
			<polygon id="XMLID_3400_" class="st0" points="198.42,33.88 208.39,16.94 218.36,33.88 			"/>
			<polygon id="XMLID_3399_" class="st2" points="208.39,16.94 198.42,33.88 188.44,16.94 			"/>
			<polygon id="XMLID_3398_" class="st2" points="178.47,33.88 188.44,16.94 198.42,33.88 			"/>
			<polygon id="XMLID_3397_" class="st1" points="188.44,16.94 178.47,33.88 168.5,16.94 			"/>
			<polygon id="XMLID_3396_" points="158.52,33.88 168.5,16.94 178.47,33.88 			"/>
			<polygon id="XMLID_3395_" class="st1" points="168.5,16.94 158.52,33.88 148.55,16.94 			"/>
			<polygon id="XMLID_3394_" points="138.58,33.88 148.55,16.94 158.52,33.88 			"/>
			<polygon id="XMLID_3393_" class="st0" points="148.55,16.94 138.58,33.88 128.6,16.94 			"/>
			<polygon id="XMLID_3392_" class="st1" points="118.63,33.88 128.6,16.94 138.58,33.88 			"/>
			<polygon id="XMLID_3391_" class="st0" points="128.6,16.94 118.63,33.88 108.66,16.94 			"/>
			<polygon id="XMLID_3390_" class="st0" points="98.68,33.88 108.66,16.94 118.63,33.88 			"/>
			<polygon id="XMLID_3389_" class="st1" points="108.66,16.94 98.68,33.88 88.71,16.94 			"/>
			<polygon id="XMLID_3388_" points="78.74,33.88 88.71,16.94 98.68,33.88 			"/>
			<polygon id="XMLID_3387_" points="88.71,16.94 78.74,33.88 68.76,16.94 			"/>
			<polygon id="XMLID_3386_" class="st2" points="58.79,33.88 68.76,16.94 78.74,33.88 			"/>
			<polygon id="XMLID_3385_" class="st2" points="68.76,16.94 58.79,33.88 48.81,16.94 			"/>
			<polygon id="XMLID_3384_" class="st2" points="38.84,33.88 48.81,16.94 58.79,33.88 			"/>
			<polygon id="XMLID_3383_" class="st1" points="48.81,16.94 38.84,33.88 28.87,16.94 			"/>
			<polygon id="XMLID_3382_" class="st1" points="18.89,33.88 28.87,16.94 38.84,33.88 			"/>
			<polygon id="XMLID_3381_" class="st0" points="28.87,16.94 18.89,33.88 8.92,16.94 			"/>
			<polygon id="XMLID_3380_" class="st0" points="0,33.88 18.89,33.88 8.92,16.94 0,32.09 			"/>
			<polygon id="XMLID_3379_" class="st1" points="0,32.09 8.92,16.94 0,16.94 			"/>
			<polygon id="XMLID_3378_" class="st1" points="288,0 278.2,0 288,16.64 			"/>
			<polygon id="XMLID_3377_" class="st1" points="288,16.64 278.2,0 268.23,16.94 288,16.94 			"/>
			<polygon id="XMLID_3376_" class="st0" points="278.2,0 268.23,16.94 258.26,0 			"/>
			<polygon id="XMLID_3375_" class="st2" points="248.28,16.94 258.26,0 268.23,16.94 			"/>
			<polygon id="XMLID_3374_" class="st2" points="258.26,0 248.28,16.94 238.31,0 			"/>
			<polygon id="XMLID_3373_" points="228.34,16.94 238.31,0 248.28,16.94 			"/>
			<polygon id="XMLID_3372_" class="st2" points="238.31,0 228.34,16.94 218.36,0 			"/>
			<polygon id="XMLID_3371_" points="208.39,16.94 218.36,0 228.34,16.94 			"/>
			<polygon id="XMLID_3370_" class="st1" points="218.36,0 208.39,16.94 198.42,0 			"/>
			<polygon id="XMLID_3369_" class="st2" points="188.44,16.94 198.42,0 208.39,16.94 			"/>
			<polygon id="XMLID_3368_" class="st1" points="198.42,0 188.44,16.94 178.47,0 			"/>
			<polygon id="XMLID_3367_" class="st2" points="168.5,16.94 178.47,0 188.44,16.94 			"/>
			<polygon id="XMLID_3366_" class="st1" points="178.47,0 168.5,16.94 158.52,0 			"/>
			<polygon id="XMLID_3365_" class="st1" points="148.55,16.94 158.52,0 168.5,16.94 			"/>
			<polygon id="XMLID_3364_" class="st1" points="158.52,0 148.55,16.94 138.58,0 			"/>
			<polygon id="XMLID_3363_" class="st2" points="128.6,16.94 138.58,0 148.55,16.94 			"/>
			<polygon id="XMLID_3362_" class="st1" points="138.58,0 128.6,16.94 118.63,0 			"/>
			<polygon id="XMLID_3361_" class="st0" points="108.66,16.94 118.63,0 128.6,16.94 			"/>
			<polygon id="XMLID_3360_" class="st0" points="118.63,0 108.66,16.94 98.68,0 			"/>
			<polygon id="XMLID_3359_" class="st1" points="88.71,16.94 98.68,0 108.66,16.94 			"/>
			<polygon id="XMLID_3358_" points="98.68,0 88.71,16.94 78.74,0 			"/>
			<polygon id="XMLID_3357_" class="st1" points="68.76,16.94 78.74,0 88.71,16.94 			"/>
			<polygon id="XMLID_3356_" class="st0" points="78.74,0 68.76,16.94 58.79,0 			"/>
			<polygon id="XMLID_3355_" class="st1" points="48.81,16.94 58.79,0 68.76,16.94 			"/>
			<polygon id="XMLID_3354_" class="st1" points="58.79,0 48.81,16.94 38.84,0 			"/>
			<polygon id="XMLID_3353_" points="28.87,16.94 38.84,0 48.81,16.94 			"/>
			<polygon id="XMLID_3352_" class="st1" points="38.84,0 28.87,16.94 18.89,0 			"/>
			<polygon id="XMLID_3351_" points="8.92,16.94 18.89,0 28.87,16.94 			"/>
			<polygon id="XMLID_3350_" class="st1" points="0,1.79 8.92,16.94 18.89,0 0,0 			"/>
			<polygon id="XMLID_3349_" class="st0" points="0,16.94 8.92,16.94 0,1.79 			"/>
		</g>
	</g>
	<g id="XMLID_66_">
		<radialGradient id="SVGID_1_" cx="143.9995" cy="144" r="184.2152" gradientUnits="userSpaceOnUse">
			<stop  offset="0.4247" style="stop-color:#FFFFFF"/>
			<stop  offset="0.687" style="stop-color:#898989"/>
			<stop  offset="1" style="stop-color:#000000"/>
		</radialGradient>
		<rect x="0" class="st3" width="288" height="288"/>
	</g>
</g>
</svg>
